ply
format ascii 1.0
element vertex 16
property float x
property float y
property float z
element face 16
property list uchar int vertex_index
end_header
0.025 0.025 0.0501071
0.567857 0.025 0.0501071
0.567857 0.975 0.0501071
0.025 0.975 0.0501071
0.025 0.025 0.0263571
0.567857 0.025 0.0263571
0.567857 0.975 0.0263571
0.025 0.975 0.0263571
0.025 0.025 0.0521429
0.567857 0.025 0.0521429
0.567857 0.975 0.0521429
0.025 0.975 0.0521429
0.025 0.025 0.025
0.567857 0.025 0.025
0.567857 0.975 0.025
0.025 0.975 0.025
3 0 1 2 
3 4 5 6 
3 0 1 5 
3 1 5 6 
3 2 6 7 
3 7 3 0 
3 8 9 10 
3 12 13 14 
3 0 2 3 
3 4 6 7 
3 0 5 4 
3 1 6 2 
3 2 7 3 
3 7 0 4 
3 8 10 11 
3 12 14 15 
